<svg width="800" height="500" viewBox="0 0 800 500" xmlns="http://www.w3.org/2000/svg">
  <!-- Background -->
  <rect width="800" height="500" fill="#f8fafc" rx="8" ry="8"/>
  
  <!-- Header -->
  <rect x="0" y="0" width="800" height="60" fill="#ffffff" rx="8" ry="8"/>
  <rect x="20" y="20" width="120" height="20" fill="#10b981" rx="4" ry="4"/>
  <circle cx="740" cy="30" r="15" fill="#e2e8f0"/>
  <rect x="640" y="20" width="80" height="20" fill="#f1f5f9" rx="10" ry="10"/>
  
  <!-- Sidebar -->
  <rect x="0" y="60" width="200" height="440" fill="#ffffff"/>
  <rect x="20" y="100" width="160" height="20" fill="#f1f5f9" rx="4" ry="4"/>
  <rect x="20" y="140" width="160" height="20" fill="#f1f5f9" rx="4" ry="4"/>
  <rect x="20" y="180" width="160" height="20" fill="#e2f8f0" rx="4" ry="4"/>
  <rect x="20" y="220" width="160" height="20" fill="#f1f5f9" rx="4" ry="4"/>
  <rect x="20" y="260" width="160" height="20" fill="#f1f5f9" rx="4" ry="4"/>
  
  <!-- Main Content -->
  <rect x="220" y="80" width="560" height="60" fill="#ffffff" rx="8" ry="8"/>
  <rect x="240" y="100" width="200" height="20" fill="#0f172a" rx="4" ry="4" opacity="0.8"/>
  <rect x="660" y="100" width="100" height="30" fill="#10b981" rx="15" ry="15"/>
  
  <!-- Stats Cards -->
  <rect x="220" y="160" width="270" height="120" fill="#ffffff" rx="8" ry="8"/>
  <rect x="240" y="180" width="100" height="20" fill="#0f172a" rx="4" ry="4" opacity="0.7"/>
  <rect x="240" y="220" width="60" height="40" fill="#10b981" rx="4" ry="4" opacity="0.2"/>
  <rect x="250" y="230" width="40" height="20" fill="#10b981" rx="2" ry="2"/>
  
  <rect x="510" y="160" width="270" height="120" fill="#ffffff" rx="8" ry="8"/>
  <rect x="530" y="180" width="100" height="20" fill="#0f172a" rx="4" ry="4" opacity="0.7"/>
  <rect x="530" y="220" width="60" height="40" fill="#3b82f6" rx="4" ry="4" opacity="0.2"/>
  <rect x="540" y="230" width="40" height="20" fill="#3b82f6" rx="2" ry="2"/>
  
  <!-- Table -->
  <rect x="220" y="300" width="560" height="180" fill="#ffffff" rx="8" ry="8"/>
  <rect x="240" y="320" width="520" height="1" fill="#e2e8f0"/>
  <rect x="240" y="320" width="200" height="20" fill="#0f172a" rx="2" ry="2" opacity="0.8"/>
  <rect x="240" y="360" width="520" height="1" fill="#e2e8f0"/>
  <rect x="240" y="380" width="100" height="10" fill="#64748b" rx="2" ry="2" opacity="0.3"/>
  <rect x="360" y="380" width="80" height="10" fill="#64748b" rx="2" ry="2" opacity="0.3"/>
  <rect x="460" y="380" width="60" height="10" fill="#64748b" rx="2" ry="2" opacity="0.3"/>
  <rect x="540" y="380" width="40" height="20" fill="#10b981" rx="10" ry="10" opacity="0.2"/>
  <rect x="600" y="380" width="40" height="20" fill="#f59e0b" rx="10" ry="10" opacity="0.2"/>
  <rect x="660" y="380" width="40" height="20" fill="#ef4444" rx="10" ry="10" opacity="0.2"/>
  
  <rect x="240" y="420" width="520" height="1" fill="#e2e8f0"/>
  <rect x="240" y="440" width="100" height="10" fill="#64748b" rx="2" ry="2" opacity="0.3"/>
  <rect x="360" y="440" width="80" height="10" fill="#64748b" rx="2" ry="2" opacity="0.3"/>
  <rect x="460" y="440" width="60" height="10" fill="#64748b" rx="2" ry="2" opacity="0.3"/>
  <rect x="540" y="440" width="40" height="20" fill="#10b981" rx="10" ry="10" opacity="0.2"/>
  <rect x="600" y="440" width="40" height="20" fill="#f59e0b" rx="10" ry="10" opacity="0.2"/>
  <rect x="660" y="440" width="40" height="20" fill="#ef4444" rx="10" ry="10" opacity="0.2"/>
</svg> 